<?xml version="1.0" encoding="UTF-8" standalone="no"?>
<!DOCTYPE svg PUBLIC "-//W3C//DTD SVG 1.1//EN"
 "http://www.w3.org/Graphics/SVG/1.1/DTD/svg11.dtd">
<!-- Generated by graphviz version 2.43.0 (0)
 -->
<!-- Title: avicable Pages: 1 -->
<svg width="142pt" height="361pt"
 viewBox="0.00 0.00 142.35 361.43" xmlns="http://www.w3.org/2000/svg" xmlns:xlink="http://www.w3.org/1999/xlink">
<g id="graph0" class="graph" transform="scale(1 1) rotate(0) translate(4 357.43)">
<title>avicable</title>
<polygon fill="white" stroke="transparent" points="-4,4 -4,-357.43 138.35,-357.43 138.35,4 -4,4"/>
<!-- frontend -->
<g id="node1" class="node">
<title>frontend</title>
<ellipse fill="lightgrey" stroke="black" cx="67.18" cy="-287.67" rx="67.35" ry="65.52"/>
<text text-anchor="start" x="41.18" y="-319.17" font-family="Times,serif" font-size="15.00">frontend</text>
<text text-anchor="start" x="44.68" y="-298.17" font-family="Times,serif" font-weight="bold" font-size="10.00">Networks:</text>
<text text-anchor="start" x="39.68" y="-288.17" font-family="Times,serif" font-size="10.00">cablesv2_net</text>
<text text-anchor="start" x="57.18" y="-278.17" font-family="Times,serif" font-size="10.00">front</text>
<text text-anchor="start" x="54.18" y="-258.17" font-family="Times,serif" font-weight="bold" font-size="10.00">Ports:</text>
<text text-anchor="start" x="27.68" y="-248.17" font-family="Times,serif" font-size="10.00">80:80 (tcp, ingress)</text>
</g>
<!-- backend -->
<g id="node3" class="node">
<title>backend</title>
<ellipse fill="lightgrey" stroke="black" cx="67.18" cy="-148.43" rx="50.41" ry="37.45"/>
<text text-anchor="start" x="41.68" y="-159.93" font-family="Times,serif" font-size="15.00">backend</text>
<text text-anchor="start" x="44.68" y="-138.93" font-family="Times,serif" font-weight="bold" font-size="10.00">Networks:</text>
<text text-anchor="start" x="39.68" y="-128.93" font-family="Times,serif" font-size="10.00">cablesv2_net</text>
</g>
<!-- frontend&#45;&gt;backend -->
<g id="edge1" class="edge">
<title>frontend&#45;&gt;backend</title>
<path fill="none" stroke="black" d="M67.18,-221.67C67.18,-213.09 67.18,-204.44 67.18,-196.26"/>
<polygon fill="black" stroke="black" points="70.68,-196.17 67.18,-186.17 63.68,-196.17 70.68,-196.17"/>
</g>
<!-- db -->
<g id="node2" class="node">
<title>db</title>
<ellipse fill="lightgrey" stroke="black" cx="67.18" cy="-37.48" rx="50.41" ry="37.45"/>
<text text-anchor="start" x="59.18" y="-48.98" font-family="Times,serif" font-size="15.00">db</text>
<text text-anchor="start" x="44.68" y="-27.98" font-family="Times,serif" font-weight="bold" font-size="10.00">Networks:</text>
<text text-anchor="start" x="39.68" y="-17.98" font-family="Times,serif" font-size="10.00">cablesv2_net</text>
</g>
<!-- backend&#45;&gt;db -->
<g id="edge2" class="edge">
<title>backend&#45;&gt;db</title>
<path fill="none" stroke="black" d="M67.18,-110.85C67.18,-102.67 67.18,-93.89 67.18,-85.37"/>
<polygon fill="black" stroke="black" points="70.68,-85.15 67.18,-75.15 63.68,-85.15 70.68,-85.15"/>
</g>
</g>
</svg>
